<svg xmlns="http://www.w3.org/2000/svg" viewBox="0 0 512 512">
  <rect width="512" height="512" rx="114" fill="#6B46FF"/>
  <path d="M268.04 102.34C265.815 97.464 261 94.49 255.62 94.5H163.692C155.857 94.5 149.5 100.857 149.5 108.692V278.846C149.5 285.495 154.062 291.246 160.548 292.802L227.692 308.916V403.5C227.692 411.335 234.05 417.692 241.884 417.692C247.264 417.692 252.079 414.718 254.304 409.842L360.765 176.611C363.593 170.413 360.852 163.056 354.654 160.228C353.11 159.524 351.42 159.16 349.704 159.16H276.923V116.538C276.923 111.055 273.666 106.012 268.04 102.34Z" fill="white"/>
</svg>
